<svg width="134" height="26" viewBox="0 0 134 26" fill="none" xmlns="http://www.w3.org/2000/svg">
<path d="M6.90129 11.1337C7.22079 10.4308 7.7959 9.72785 8.56271 9.28055C9.32952 8.83324 10.0963 8.57764 10.927 8.57764H15.464C15.5279 8.57764 15.5279 8.64154 15.5279 8.64154L11.6938 17.332C11.5021 17.7155 11.566 18.1628 11.8216 18.5462C12.0772 18.9296 12.4607 19.1213 12.908 19.1213H21.5346C21.5985 19.1213 21.5985 19.1852 21.5985 19.2491L19.1702 23.7221C18.8507 24.2972 18.4034 24.8084 17.7644 25.1918C17.1254 25.5752 16.4864 25.703 15.7835 25.703H0.0639008C0 25.703 0 25.6391 0 25.5752L6.90129 11.1337Z" fill="#799D97"/>
<path d="M1.53349 0.334524C1.53349 0.270623 1.53349 0.270623 1.59739 0.270623H23.1959C44.986 0.206722 41.4715 26.7255 21.0871 25.7031C21.0232 25.7031 21.0232 25.6392 21.0232 25.5753C25.4963 17.7155 30.0332 6.5329 21.0232 6.7885H7.09285C4.02562 6.2773 2.10859 4.23247 1.53349 0.334524Z" fill="#799D97"/>
<path d="M48.6282 4.99927C50.1619 4.99927 51.4399 5.51047 52.4623 6.59679C53.4847 7.6831 53.9959 8.96112 53.9959 10.5586C53.9959 12.1562 53.4847 13.4342 52.4623 14.5205C51.4399 15.6068 50.1619 16.118 48.6282 16.118H45.4971C44.7303 16.118 44.1552 15.5429 44.1552 14.7761V6.34118C44.1552 5.57437 44.7303 4.99927 45.4971 4.99927H48.6282ZM48.6282 13.6259C49.5229 13.6259 50.2258 13.3703 50.737 12.7952C51.3121 12.2201 51.5677 11.4532 51.5677 10.5586C51.5677 9.60013 51.3121 8.83332 50.737 8.32211C50.1619 7.747 49.459 7.4914 48.6282 7.4914H46.7112V13.7537H48.6282V13.6259Z" fill="#799D97"/>
<path d="M56.7435 4.99927C57.4464 4.99927 58.0215 5.57437 58.0215 6.27728V14.84C58.0215 15.5429 57.4464 16.118 56.7435 16.118C56.0406 16.118 55.4655 15.5429 55.4655 14.84V6.27728C55.4655 5.57437 56.0406 4.99927 56.7435 4.99927Z" fill="#799D97"/>
<path d="M69.971 9.91968C70.4822 9.91968 70.9295 10.367 70.9295 10.8782C70.9295 12.5396 70.4183 13.8815 69.3959 14.84C68.3734 15.8625 67.0315 16.3098 65.434 16.3098C63.7087 16.3098 62.3029 15.7347 61.1527 14.6483C60.0024 13.562 59.4273 12.1562 59.4273 10.5587C59.4273 8.96117 60.0024 7.55535 61.1527 6.46904C62.3029 5.31882 63.6448 4.80762 65.3062 4.80762C66.3286 4.80762 67.2871 5.06322 68.1817 5.51053C68.5012 5.70223 68.8208 5.89393 69.1403 6.14953C69.7793 6.66074 69.7154 7.68315 69.0125 8.06656L68.8847 8.13046C68.4374 8.38606 67.9261 8.32216 67.5427 8.00266C67.351 7.87486 67.2232 7.74705 66.9676 7.61925C66.4564 7.36365 65.9452 7.23585 65.3062 7.23585C64.3477 7.23585 63.5809 7.55535 62.9419 8.19436C62.3029 8.83337 61.9834 9.60018 61.9834 10.6226C61.9834 11.5811 62.3029 12.3479 62.9419 12.9869C63.5809 13.6259 64.4116 13.8815 65.4979 13.8815C66.9676 13.8815 67.9261 13.3064 68.3734 12.1562H66.4564C65.8174 12.1562 65.3701 11.645 65.3701 11.0699C65.3701 10.4309 65.8813 9.98358 66.4564 9.98358H69.971V9.91968Z" fill="#799D97"/>
<path d="M73.6134 4.99927C74.3163 4.99927 74.8914 5.57437 74.8914 6.27728V14.84C74.8914 15.5429 74.3163 16.118 73.6134 16.118C72.9105 16.118 72.3354 15.5429 72.3354 14.84V6.27728C72.3354 5.57437 72.9105 4.99927 73.6134 4.99927Z" fill="#799D97"/>
<path d="M84.2846 6.21338C84.2846 6.91629 83.7095 7.4275 83.0705 7.4275H81.4091V14.84C81.4091 15.5429 80.834 16.118 80.1311 16.118C79.4282 16.118 78.8531 15.5429 78.8531 14.84V7.4275H77.1916C76.4887 7.4275 75.9775 6.85239 75.9775 6.21338C75.9775 5.51047 76.5526 4.99927 77.1916 4.99927H83.0066C83.7095 4.99927 84.2846 5.51047 84.2846 6.21338Z" fill="#799D97"/>
<path d="M91.3782 15.2234L91.1226 14.3927H86.969L86.7134 15.2234C86.5217 15.7346 86.0105 16.118 85.4354 16.118C84.5408 16.118 83.9018 15.2234 84.2213 14.3927L86.9051 6.53289C87.2246 5.63828 88.0553 4.99927 89.0777 4.99927C90.0363 4.99927 90.9309 5.63828 91.2504 6.53289L93.9342 14.3927C94.2537 15.2234 93.6147 16.118 92.7201 16.118C92.0811 16.118 91.5699 15.7346 91.3782 15.2234ZM87.7358 11.9645H90.3558L89.0777 7.8748L87.7358 11.9645Z" fill="#799D97"/>
<path d="M97.9595 13.6259H100.707C101.41 13.6259 101.921 14.201 101.921 14.84C101.921 15.5429 101.346 16.0541 100.707 16.0541H96.7454C95.9786 16.0541 95.4035 15.479 95.4035 14.7122V6.27728C95.4035 5.57437 95.9786 4.99927 96.6815 4.99927C97.3844 4.99927 97.9595 5.57437 97.9595 6.27728V13.6259Z" fill="#799D97"/>
<path d="M109.59 13.6259H112.337C113.04 13.6259 113.551 14.201 113.551 14.84C113.551 15.5429 112.976 16.0541 112.337 16.0541H108.375C107.609 16.0541 107.033 15.479 107.033 14.7122V6.27728C107.033 5.57437 107.609 4.99927 108.312 4.99927C109.014 4.99927 109.59 5.57437 109.59 6.27728V13.6259Z" fill="#799D97"/>
<path d="M121.73 15.2234L121.475 14.3927H117.321L117.066 15.2234C116.874 15.7346 116.363 16.118 115.788 16.118C114.893 16.118 114.254 15.2234 114.574 14.3927L117.257 6.53289C117.577 5.63828 118.408 4.99927 119.43 4.99927C120.389 4.99927 121.283 5.63828 121.603 6.53289L124.287 14.3927C124.606 15.2234 123.967 16.118 123.072 16.118C122.433 16.118 121.922 15.7346 121.73 15.2234ZM118.088 11.9645H120.708L119.43 7.8748L118.088 11.9645Z" fill="#799D97"/>
<path d="M132.658 10.303C133.552 10.8781 134 11.7089 134 12.7952C134 13.7537 133.68 14.5205 132.977 15.1595C132.274 15.7346 131.444 16.0541 130.421 16.0541H127.098C126.332 16.0541 125.757 15.479 125.757 14.7122V6.34118C125.757 5.57437 126.332 4.99927 127.098 4.99927H130.102C131.124 4.99927 131.955 5.31877 132.594 5.89388C133.297 6.46899 133.616 7.23579 133.616 8.19431C133.68 9.02502 133.297 9.79183 132.658 10.303ZM130.166 7.3636H128.376V9.34452H130.166C130.421 9.34452 130.677 9.28062 130.869 9.08892C131.06 8.89722 131.124 8.64161 131.124 8.38601C131.124 8.13041 131.06 7.8748 130.869 7.6831C130.677 7.4275 130.421 7.3636 130.166 7.3636ZM130.485 13.6898C130.805 13.6898 131.06 13.562 131.252 13.3703C131.444 13.1786 131.508 12.923 131.508 12.6035C131.508 12.284 131.444 12.0284 131.252 11.8367C131.06 11.6449 130.805 11.5171 130.485 11.5171H128.376V13.6898H130.485Z" fill="#799D97"/>
<path d="M47.9896 20.5271C48.373 20.5271 48.6925 20.6549 48.9481 20.9105C49.2037 21.1661 49.3315 21.4856 49.3315 21.9329V24.1694H48.8842V21.9329C48.8842 21.6134 48.8203 21.3578 48.6286 21.23C48.5008 21.0383 48.2452 20.9744 47.9896 20.9744C47.6701 20.9744 47.4784 21.1022 47.2867 21.2939C47.095 21.4856 47.0311 21.8051 47.0311 22.1885V24.1694H46.5838V21.9329C46.5838 21.6134 46.5199 21.3578 46.3282 21.23C46.2004 21.0383 45.9448 20.9744 45.6892 20.9744C45.4336 20.9744 45.178 21.1022 44.9863 21.2939C44.7946 21.4856 44.6668 21.8051 44.6668 22.1885V24.1694H44.2195V20.591H44.6668V21.1022C44.9224 20.7188 45.3058 20.5271 45.7531 20.5271C46.2643 20.5271 46.6477 20.7188 46.8394 21.1661C47.095 20.7188 47.4784 20.5271 47.9896 20.5271Z" fill="#799D97"/>
<path d="M55.3382 20.591H55.7855V24.1694H55.3382V23.4665C55.0187 23.9777 54.5075 24.2333 53.9324 24.2333C53.4212 24.2333 52.9738 24.0416 52.6543 23.7221C52.2709 23.3387 52.1431 22.8914 52.1431 22.3802C52.1431 21.869 52.3348 21.4217 52.6543 21.0383C53.0377 20.6549 53.4212 20.5271 53.9324 20.5271C54.5714 20.5271 55.0187 20.7827 55.3382 21.2939V20.591ZM52.9738 23.4026C53.2295 23.6582 53.549 23.786 53.9963 23.786C54.4436 23.786 54.6992 23.6582 55.0187 23.4026C55.2743 23.147 55.4021 22.8275 55.4021 22.3802C55.4021 21.9329 55.2743 21.6773 55.0187 21.3578C54.7631 21.0383 54.4436 20.9744 53.9963 20.9744C53.549 20.9744 53.2934 21.1022 52.9738 21.3578C52.7182 21.6134 52.5904 21.9329 52.5904 22.3802C52.5904 22.8275 52.7182 23.147 52.9738 23.4026Z" fill="#799D97"/>
<path d="M59.3638 21.2301C59.5555 20.7828 59.9389 20.5911 60.514 20.5911V21.0384C60.1945 21.0384 59.9389 21.1023 59.6833 21.294C59.4916 21.4857 59.3638 21.8052 59.3638 22.1886V24.1695H58.9165V20.5911H59.3638V21.2301Z" fill="#799D97"/>
<path d="M66.0735 24.1696H65.4345L63.6453 22.4442V24.1696H63.198V19.1853H63.6453V22.1886L65.3706 20.5911H66.0096L64.1565 22.3164L66.0735 24.1696Z" fill="#799D97"/>
<path d="M70.0351 20.5271C70.5463 20.5271 70.9936 20.7188 71.3131 21.1022C71.6326 21.4856 71.8243 21.9329 71.8243 22.4441C71.8243 22.508 71.8243 22.5719 71.8243 22.6358H68.6932C68.7571 23.0192 68.8849 23.2748 69.1405 23.4665C69.3961 23.6582 69.7156 23.786 70.099 23.786C70.3546 23.786 70.6102 23.7221 70.8019 23.5943C70.9936 23.4665 71.1214 23.3387 71.2492 23.147L71.6326 23.4026C71.5048 23.6582 71.2492 23.8499 70.9936 23.9777C70.738 24.1055 70.4185 24.1694 70.099 24.1694C69.5239 24.1694 69.0766 23.9777 68.7571 23.6582C68.4376 23.3387 68.2459 22.8914 68.2459 22.3163C68.2459 21.8051 68.4376 21.3578 68.7571 20.9744C69.0766 20.7188 69.5239 20.5271 70.0351 20.5271ZM70.0351 20.9744C69.6517 20.9744 69.3322 21.1022 69.0766 21.2939C68.821 21.4856 68.6932 21.8051 68.6293 22.1246H71.3131C71.2492 21.7412 71.1214 21.4856 70.8658 21.23C70.6741 21.1022 70.3546 20.9744 70.0351 20.9744Z" fill="#799D97"/>
<path d="M76.4256 21.0384H75.4032V23.211C75.4032 23.4027 75.4671 23.5305 75.531 23.6583C75.5949 23.7222 75.7227 23.7861 75.8505 23.7861C75.9783 23.7861 76.17 23.7861 76.4256 23.7861V24.1695C75.9144 24.2334 75.531 24.2334 75.2754 24.0417C75.0198 23.9139 74.892 23.5944 74.892 23.211V21.0384H74.1252V20.5911H74.892V19.7604L75.3393 19.6326V20.655H76.3617V21.0384H76.4256Z" fill="#799D97"/>
<path d="M79.7478 19.7603C79.6839 19.8242 79.62 19.8881 79.4922 19.8881C79.4283 19.8881 79.3005 19.8242 79.2366 19.7603C79.1727 19.6964 79.1088 19.6325 79.1088 19.5047C79.1088 19.4408 79.1727 19.313 79.2366 19.2491C79.3005 19.1852 79.3644 19.1213 79.4922 19.1213C79.5561 19.1213 79.6839 19.1852 79.7478 19.2491C79.8117 19.313 79.8756 19.3769 79.8756 19.5047C79.8117 19.6325 79.8117 19.6964 79.7478 19.7603ZM79.2366 24.1695V20.5911H79.6839V24.1695H79.2366Z" fill="#799D97"/>
<path d="M84.4769 20.5271C84.9242 20.5271 85.2437 20.6549 85.4993 20.9105C85.7549 21.1661 85.8827 21.5495 85.8827 21.9968V24.1694H85.4354V21.9968C85.4354 21.6773 85.3715 21.4217 85.1798 21.23C84.9881 21.0383 84.7964 20.9744 84.4769 20.9744C84.1574 20.9744 83.8379 21.1022 83.6462 21.2939C83.4545 21.4856 83.3267 21.869 83.3267 22.3163V24.1694H82.8794V20.591H83.3267V21.1661C83.5184 20.7188 83.9018 20.5271 84.4769 20.5271Z" fill="#799D97"/>
<path d="M91.8895 20.5911H92.3368V23.9779C92.3368 24.4891 92.1451 24.8725 91.8256 25.192C91.5061 25.5115 91.0587 25.6393 90.5475 25.6393C89.7168 25.6393 89.1417 25.3198 88.8861 24.7447L89.2695 24.4891C89.4612 24.9364 89.9085 25.1281 90.5475 25.1281C90.9309 25.1281 91.2505 25.0003 91.5061 24.8086C91.7617 24.6169 91.8895 24.2974 91.8895 23.914V23.3388C91.57 23.8501 91.0588 24.1057 90.4836 24.1057C89.9724 24.1057 89.5251 23.914 89.2056 23.5945C88.8222 23.211 88.6944 22.7637 88.6944 22.2525C88.6944 21.7413 88.8861 21.294 89.2056 20.9106C89.589 20.5272 89.9724 20.3994 90.4836 20.3994C91.1227 20.3994 91.57 20.655 91.8895 21.1662V20.5911ZM89.4612 23.4028C89.7168 23.6584 90.0363 23.7862 90.4836 23.7862C90.8671 23.7862 91.1866 23.6584 91.5061 23.4028C91.7617 23.1471 91.8895 22.8276 91.8895 22.3803C91.8895 21.933 91.7617 21.6774 91.5061 21.3579C91.2505 21.0384 90.931 20.9745 90.4836 20.9745C90.1002 20.9745 89.7807 21.1023 89.4612 21.3579C89.2056 21.6135 89.0778 21.933 89.0778 22.3803C89.0778 22.8276 89.2056 23.1471 89.4612 23.4028Z" fill="#799D97"/>
<path d="M102.306 20.591H102.753V24.1694H102.306V23.4665C101.986 23.9777 101.475 24.2333 100.9 24.2333C100.389 24.2333 99.9414 24.0416 99.6219 23.7221C99.2385 23.3387 99.1107 22.8914 99.1107 22.3802C99.1107 21.869 99.3024 21.4217 99.6219 21.0383C100.005 20.6549 100.389 20.5271 100.9 20.5271C101.539 20.5271 101.986 20.7827 102.306 21.2939V20.591ZM99.9414 23.4026C100.197 23.6582 100.516 23.786 100.964 23.786C101.347 23.786 101.667 23.6582 101.986 23.4026C102.242 23.147 102.37 22.8275 102.37 22.3802C102.37 21.9329 102.242 21.6773 101.986 21.3578C101.731 21.0383 101.411 20.9744 100.964 20.9744C100.58 20.9744 100.261 21.1022 99.9414 21.3578C99.6858 21.6134 99.558 21.9329 99.558 22.3802C99.558 22.8275 99.6219 23.147 99.9414 23.4026Z" fill="#799D97"/>
<path d="M108.887 20.5911H109.334V23.9779C109.334 24.4891 109.143 24.8725 108.823 25.192C108.504 25.5115 108.056 25.6393 107.545 25.6393C106.714 25.6393 106.139 25.3198 105.884 24.7447L106.267 24.4891C106.459 24.9364 106.906 25.1281 107.545 25.1281C107.929 25.1281 108.248 25.0003 108.504 24.8086C108.759 24.6169 108.887 24.2974 108.887 23.914V23.3388C108.568 23.8501 108.056 24.1057 107.481 24.1057C106.97 24.1057 106.523 23.914 106.203 23.5945C105.82 23.211 105.692 22.7637 105.692 22.2525C105.692 21.7413 105.884 21.294 106.203 20.9106C106.587 20.5272 106.97 20.3994 107.481 20.3994C108.12 20.3994 108.568 20.655 108.887 21.1662V20.5911ZM106.523 23.4028C106.778 23.6584 107.098 23.7862 107.545 23.7862C107.929 23.7862 108.248 23.6584 108.568 23.4028C108.823 23.1471 108.951 22.8276 108.951 22.3803C108.951 21.933 108.823 21.6774 108.568 21.3579C108.312 21.0384 107.992 20.9745 107.545 20.9745C107.162 20.9745 106.842 21.1023 106.523 21.3579C106.267 21.6135 106.139 21.933 106.139 22.3803C106.139 22.8276 106.203 23.1471 106.523 23.4028Z" fill="#799D97"/>
<path d="M114.063 20.5271C114.575 20.5271 115.022 20.7188 115.341 21.1022C115.661 21.4856 115.853 21.9329 115.853 22.4441C115.853 22.508 115.853 22.5719 115.853 22.6358H112.721C112.785 23.0192 112.913 23.2748 113.169 23.4665C113.424 23.6582 113.744 23.786 114.127 23.786C114.383 23.786 114.639 23.7221 114.83 23.5943C115.022 23.4665 115.15 23.3387 115.278 23.147L115.661 23.4026C115.533 23.6582 115.278 23.8499 115.022 23.9777C114.766 24.1055 114.447 24.1694 114.127 24.1694C113.552 24.1694 113.105 23.9777 112.785 23.6582C112.466 23.3387 112.274 22.8914 112.274 22.3163C112.274 21.8051 112.466 21.3578 112.785 20.9744C113.105 20.7188 113.552 20.5271 114.063 20.5271ZM114.063 20.9744C113.68 20.9744 113.36 21.1022 113.105 21.2939C112.849 21.4856 112.721 21.8051 112.658 22.1246H115.341C115.278 21.7412 115.15 21.4856 114.894 21.23C114.702 21.1022 114.383 20.9744 114.063 20.9744Z" fill="#799D97"/>
<path d="M120.325 20.5271C120.773 20.5271 121.092 20.6549 121.348 20.9105C121.603 21.1661 121.731 21.5495 121.731 21.9968V24.1694H121.284V21.9968C121.284 21.6773 121.22 21.4217 121.028 21.23C120.837 21.0383 120.645 20.9744 120.325 20.9744C120.006 20.9744 119.686 21.1022 119.495 21.2939C119.303 21.4856 119.175 21.869 119.175 22.3163V24.1694H118.728V20.591H119.175V21.1661C119.367 20.7188 119.814 20.5271 120.325 20.5271Z" fill="#799D97"/>
<path d="M126.332 24.2333C125.82 24.2333 125.373 24.0416 124.99 23.7221C124.606 23.3387 124.479 22.8914 124.479 22.3802C124.479 21.869 124.67 21.4217 124.99 21.0383C125.309 20.6549 125.82 20.5271 126.332 20.5271C126.651 20.5271 126.971 20.591 127.29 20.7827C127.546 20.9744 127.801 21.1661 127.929 21.4856L127.546 21.6773C127.482 21.4856 127.29 21.2939 127.098 21.1661C126.907 21.0383 126.651 20.9744 126.396 20.9744C126.012 20.9744 125.693 21.1022 125.373 21.3578C125.118 21.6134 124.99 21.9329 124.99 22.3802C124.99 22.8275 125.118 23.0831 125.373 23.4026C125.629 23.6582 125.948 23.786 126.396 23.786C126.651 23.786 126.907 23.7221 127.098 23.5943C127.29 23.4665 127.482 23.2748 127.61 23.0831L127.993 23.3387C127.865 23.5943 127.61 23.8499 127.354 24.0416C127.035 24.1694 126.715 24.2333 126.332 24.2333Z" fill="#799D97"/>
<path d="M133.233 20.5911H133.744L132.21 24.489C132.082 24.8085 131.891 25.128 131.635 25.3197C131.38 25.5114 131.124 25.6392 130.804 25.5753V25.128C131.252 25.1919 131.571 24.9363 131.763 24.3612L131.827 24.1695L130.229 20.5911H130.741L132.082 23.5944L133.233 20.5911Z" fill="#799D97"/>
</svg>
