<svg width="20" height="20" viewBox="0 0 20 20" fill="none" xmlns="http://www.w3.org/2000/svg">
<path d="M13.2575 10.1024L20 14.3649V5.65991L13.2575 10.1024Z" fill="#799D97"/>
<path d="M0 5.65991V14.3649L6.7425 10.1024L0 5.65991Z" fill="#799D97"/>
<path d="M18.75 3.125H1.24998C0.626226 3.125 0.131226 3.59 0.0374756 4.18875L9.99997 10.7525L19.9625 4.18875C19.8687 3.59 19.3737 3.125 18.75 3.125Z" fill="#799D97"/>
<path d="M12.1125 10.8575L10.3438 12.0225C10.2388 12.0912 10.12 12.125 10 12.125C9.88004 12.125 9.76129 12.0912 9.65629 12.0225L7.88754 10.8562L0.0400391 15.82C0.136289 16.4137 0.628789 16.875 1.25004 16.875H18.75C19.3713 16.875 19.8638 16.4137 19.96 15.82L12.1125 10.8575Z" fill="#799D97"/>
</svg>
