<svg width="40" height="40" viewBox="0 0 40 40" fill="none" xmlns="http://www.w3.org/2000/svg">
<g clip-path="url(#clip0)">
<path d="M39.9608 11.7601C39.8671 9.63476 39.5234 8.17359 39.0311 6.90748C38.5232 5.56353 37.7417 4.36029 36.718 3.36003C35.7177 2.34421 34.5066 1.55487 33.1782 1.05489C31.9047 0.562549 30.4512 0.218854 28.3259 0.125146C26.1846 0.0235031 25.5049 0 20.0741 0C14.6434 0 13.9636 0.0235031 11.8303 0.11721C9.705 0.210918 8.24384 0.554918 6.97803 1.04696C5.63377 1.55487 4.43053 2.33627 3.43028 3.36003C2.41446 4.36029 1.62542 5.57146 1.12514 6.89985C0.6328 8.17359 0.289105 9.62682 0.195398 11.7522C0.0937545 13.8934 0.0702515 14.5732 0.0702515 20.0039C0.0702515 25.4347 0.0937545 26.1144 0.187462 28.2477C0.281169 30.3731 0.625169 31.8342 1.11751 33.1003C1.62542 34.4443 2.41446 35.6475 3.43028 36.6478C4.43053 37.6636 5.64171 38.4529 6.97009 38.9529C8.24384 39.4453 9.69706 39.789 11.8227 39.8827C13.9557 39.9767 14.6358 39.9999 20.0665 39.9999C25.4972 39.9999 26.177 39.9767 28.3103 39.8827C30.4356 39.789 31.8968 39.4453 33.1626 38.9529C35.8508 37.9136 37.9762 35.7882 39.0155 33.1003C39.5075 31.8266 39.8515 30.3731 39.9452 28.2477C40.0389 26.1144 40.0625 25.4347 40.0625 20.0039C40.0625 14.5732 40.0545 13.8934 39.9608 11.7601ZM36.3587 28.0914C36.2727 30.0449 35.9445 31.0998 35.671 31.8031C34.9989 33.5457 33.6159 34.9287 31.8733 35.6008C31.17 35.8743 30.1075 36.2024 28.1616 36.2882C26.0519 36.3822 25.4191 36.4054 20.0821 36.4054C14.745 36.4054 14.1043 36.3822 12.0022 36.2882C10.0487 36.2024 8.9938 35.8743 8.29054 35.6008C7.42336 35.2803 6.63403 34.7724 5.99334 34.1082C5.32915 33.4596 4.82123 32.6782 4.50074 31.811C4.22725 31.1078 3.89912 30.0449 3.81335 28.0994C3.71934 25.9896 3.69614 25.3565 3.69614 20.0195C3.69614 14.6824 3.71934 14.0417 3.81335 11.9399C3.89912 9.98639 4.22725 8.93149 4.50074 8.22823C4.82123 7.36075 5.32915 6.57172 6.00127 5.93072C6.64959 5.26653 7.43099 4.75862 8.29847 4.43843C9.00173 4.16494 10.0646 3.83681 12.0101 3.75073C14.1199 3.65703 14.753 3.63352 20.0897 3.63352C25.4347 3.63352 26.0674 3.65703 28.1696 3.75073C30.1231 3.83681 31.178 4.16494 31.8812 4.43843C32.7484 4.75862 33.5377 5.26653 34.1784 5.93072C34.8426 6.57935 35.3505 7.36075 35.671 8.22823C35.9445 8.93149 36.2727 9.99402 36.3587 11.9399C36.4524 14.0497 36.4759 14.6824 36.4759 20.0195C36.4759 25.3565 36.4524 25.9816 36.3587 28.0914Z" fill="#799D97"/>
<path d="M20.0742 9.72852C14.4014 9.72852 9.79877 14.3309 9.79877 20.004C9.79877 25.6771 14.4014 30.2794 20.0742 30.2794C25.7473 30.2794 30.3497 25.6771 30.3497 20.004C30.3497 14.3309 25.7473 9.72852 20.0742 9.72852ZM20.0742 26.6694C16.394 26.6694 13.4088 23.6845 13.4088 20.004C13.4088 16.3234 16.394 13.3385 20.0742 13.3385C23.7547 13.3385 26.7396 16.3234 26.7396 20.004C26.7396 23.6845 23.7547 26.6694 20.0742 26.6694Z" fill="#799D97"/>
<path d="M33.1551 9.32207C33.1551 10.6468 32.0809 11.7209 30.7559 11.7209C29.4312 11.7209 28.3571 10.6468 28.3571 9.32207C28.3571 7.99704 29.4312 6.92322 30.7559 6.92322C32.0809 6.92322 33.1551 7.99704 33.1551 9.32207Z" fill="#799D97"/>
</g>
<defs>
<clipPath id="clip0">
<rect width="40" height="40" fill="white"/>
</clipPath>
</defs>
</svg>
